<?xml version="1.0" encoding="utf-8"?>
<!-- Generator: Adobe Illustrator 16.0.0, SVG Export Plug-In . SVG Version: 6.00 Build 0)  -->
<!DOCTYPE svg PUBLIC "-//W3C//DTD SVG 1.1//EN" "http://www.w3.org/Graphics/SVG/1.1/DTD/svg11.dtd">
<svg version="1.1" xmlns="http://www.w3.org/2000/svg" xmlns:xlink="http://www.w3.org/1999/xlink" x="0px" y="0px"
	 width="799.361px" height="300px" viewBox="0 0 799.361 300" enable-background="new 0 0 799.361 300" xml:space="preserve">
<g id="Guides" display="none">
	
		<line display="inline" fill="none" stroke="#88FDFF" stroke-width="0.5" stroke-miterlimit="10" x1="-504.058" y1="-544.058" x2="844.058" y2="804.058"/>
	
		<line display="inline" fill="none" stroke="#88FDFF" stroke-width="0.5" stroke-miterlimit="10" x1="-504.058" y1="-464.058" x2="764.058" y2="804.058"/>
	
		<line display="inline" fill="none" stroke="#88FDFF" stroke-width="0.5" stroke-miterlimit="10" x1="-405" y1="705" x2="705" y2="-405"/>
</g>
<g id="Layer_2">
	<linearGradient id="SVGID_1_" gradientUnits="userSpaceOnUse" x1="1939.1553" y1="-656.7529" x2="2217.4404" y2="-378.4677">
		<stop  offset="0" style="stop-color:#4383AB"/>
		<stop  offset="1" style="stop-color:#883FFF"/>
	</linearGradient>
	<path fill="url(#SVGID_1_)" d="M2217.439-406.754l-250-250c-3.619-3.62-8.619-5.858-14.143-5.858c-11.046,0-20,8.954-20,20
		c0,5.523,2.238,10.523,5.857,14.142l250,250c3.619,3.619,8.619,5.857,14.143,5.857c11.046,0,20-8.954,20-20
		C2223.297-398.135,2221.059-403.135,2217.439-406.754z"/>
	<g display="none">
		<path display="inline" fill="none" stroke="#A7A9AC" stroke-miterlimit="10" d="M295,25"/>
		<path display="inline" fill="none" stroke="#A7A9AC" stroke-miterlimit="10" d="M295,25c0-11.046-8.954-20-20-20
			c0,0-6.75-0.625-15.438,4.563c0,0-132.563,71.604-89.563,120.377l116.387,116.036"/>
		<path display="inline" fill="none" stroke="#A7A9AC" stroke-miterlimit="10" d="M286.387,245.976
			c0.057,0.06,0.115,0.117,0.176,0.175"/>
		<path display="inline" fill="none" stroke="#A7A9AC" stroke-miterlimit="10" d="M295,242.534c0,2.762-2.238,5-5,5
			c-1.335,0-2.541-0.531-3.438-1.384"/>
		<line display="inline" fill="none" stroke="#A7A9AC" stroke-miterlimit="10" x1="295" y1="242.534" x2="295" y2="25"/>
		
			<line display="inline" fill="none" stroke="#A7A9AC" stroke-miterlimit="10" x1="286.725" y1="246.313" x2="286.563" y2="246.15"/>
		
			<line display="inline" fill="none" stroke="#A7A9AC" stroke-miterlimit="10" x1="286.387" y1="245.976" x2="286.563" y2="246.15"/>
	</g>
	<g>
		<linearGradient id="SVGID_2_" gradientUnits="userSpaceOnUse" x1="2156.5059" y1="-420.0537" x2="2156.5059" y2="-662.6113">
			<stop  offset="0" style="stop-color:#D06AFF"/>
			<stop  offset="0.5" style="stop-color:#4383AB"/>
			<stop  offset="1" style="stop-color:#88F0FF"/>
		</linearGradient>
		<path fill="url(#SVGID_2_)" d="M2223.297-642.588c0-11.046-8.954-20-20-20c0,0-6.75-0.625-15.438,4.563
			c0,0-132.563,71.604-89.563,120.377l116.387,116.036l0.176,0.175c0.896,0.853,2.103,1.384,3.438,1.384c2.762,0,5-2.238,5-5
			V-642.588z"/>
	</g>
	<g>
		<linearGradient id="SVGID_3_" gradientUnits="userSpaceOnUse" x1="1878.9092" y1="-557.8506" x2="2024.0704" y2="-412.6893">
			<stop  offset="0" style="stop-color:#2484C6"/>
			<stop  offset="0.5" style="stop-color:#4383AB"/>
			<stop  offset="1" style="stop-color:#5E0094"/>
		</linearGradient>
		<path fill="url(#SVGID_3_)" d="M1933.297-392.635c0,11.046,8.954,20,20,20c0,0,6.75,0.625,15.438-4.563
			c0,0,132.563-71.604,89.563-120.377L1941.91-613.61l-0.176-0.175c-0.896-0.853-2.103-1.384-3.438-1.384c-2.762,0-5,2.238-5,5
			V-392.635z"/>
	</g>
	<linearGradient id="SVGID_4_" gradientUnits="userSpaceOnUse" x1="1795.7627" y1="-249.7114" x2="2126.1631" y2="-58.9546">
		<stop  offset="0" style="stop-color:#D06AFF"/>
		<stop  offset="0.5" style="stop-color:#4383AB"/>
		<stop  offset="1" style="stop-color:#88F0FF"/>
	</linearGradient>
	<path fill="url(#SVGID_4_)" d="M2105.964-29.333c0,11.046-8.954,20-20,20c-5.523,0-10.523-2.238-14.143-5.857l-250-250
		c-3.619-3.619-5.857-8.619-5.857-14.142c0-11.046,8.954-20,20-20c5.523,0,10.523,2.238,14.143,5.858l250,250
		C2103.726-39.856,2105.964-34.856,2105.964-29.333z M2105.964-279.31c0-11.046-8.954-20-20-20c0,0-6.75-0.625-15.438,4.563
		c0,0-132.563,71.604-89.563,120.377l116.387,116.036l0.176,0.175c0.896,0.853,2.103,1.384,3.438,1.384c2.762,0,5-2.238,5-5V-279.31
		z M1815.964-29.356c0,11.046,8.954,20,20,20c0,0,6.75,0.625,15.438-4.563c0,0,132.563-71.604,89.563-120.377l-116.387-116.036
		l-0.176-0.175c-0.896-0.853-2.103-1.384-3.438-1.384c-2.762,0-5,2.238-5,5V-29.356z"/>
	<linearGradient id="SVGID_5_" gradientUnits="userSpaceOnUse" x1="1821.8213" y1="10.8569" x2="2100.1057" y2="289.1414">
		<stop  offset="0" style="stop-color:#D06AFF"/>
		<stop  offset="0.5" style="stop-color:#4383AB"/>
		<stop  offset="1" style="stop-color:#88F0FF"/>
	</linearGradient>
	<path fill="url(#SVGID_5_)" d="M2105.964,275c0,11.046-8.954,20-20,20c-5.523,0-10.523-2.238-14.143-5.857l-250-250
		c-3.619-3.619-5.857-8.619-5.857-14.143c0-11.046,8.954-20,20-20c5.523,0,10.523,2.238,14.143,5.858l250,250
		C2103.726,264.477,2105.964,269.477,2105.964,275z M2105.964,25.023c0-11.046-8.954-20-20-20c0,0-6.75-0.625-15.438,4.563
		c0,0-132.563,71.604-89.563,120.377l116.387,116.036l0.176,0.175c0.896,0.853,2.103,1.384,3.438,1.384c2.762,0,5-2.238,5-5V25.023z
		 M1815.964,274.977c0,11.046,8.954,20,20,20c0,0,6.75,0.625,15.438-4.563c0,0,132.563-71.604,89.563-120.377L1824.577,54.001
		l-0.176-0.175c-0.896-0.853-2.103-1.384-3.438-1.384c-2.762,0-5,2.238-5,5V274.977z"/>
	<linearGradient id="SVGID_6_" gradientUnits="userSpaceOnUse" x1="2396.3418" y1="10.8672" x2="2205.585" y2="-319.5333">
		<stop  offset="0" style="stop-color:#D06AFF"/>
		<stop  offset="0.5" style="stop-color:#4383AB"/>
		<stop  offset="1" style="stop-color:#88F0FF"/>
	</linearGradient>
	<path fill="url(#SVGID_6_)" d="M2445.964-29.333c0,11.046-8.954,20-20,20c-5.523,0-10.523-2.238-14.143-5.857l-250-250
		c-3.619-3.619-5.857-8.619-5.857-14.142c0-11.046,8.954-20,20-20c5.523,0,10.523,2.238,14.143,5.858l250,250
		C2443.726-39.856,2445.964-34.856,2445.964-29.333z M2445.964-279.31c0-11.046-8.954-20-20-20c0,0-6.75-0.625-15.438,4.563
		c0,0-132.563,71.604-89.563,120.377l116.387,116.036l0.176,0.175c0.896,0.853,2.103,1.384,3.438,1.384c2.762,0,5-2.238,5-5V-279.31
		z M2155.964-29.356c0,11.046,8.954,20,20,20c0,0,6.75,0.625,15.438-4.563c0,0,132.563-71.604,89.563-120.377l-116.387-116.036
		l-0.176-0.175c-0.896-0.853-2.103-1.384-3.438-1.384c-2.762,0-5,2.238-5,5V-29.356z"/>
	<path fill="none" stroke="#FFFFFF" stroke-width="2" stroke-miterlimit="10" d="M944.361-102.611c0,11.047-8.955,20-20,20
		c-5.523,0-10.523-2.238-14.143-5.857l-250-250c-3.619-3.619-5.857-8.62-5.857-14.143c0-11.045,8.953-20,20-20
		c5.523,0,10.523,2.238,14.143,5.857l250,250C942.123-113.135,944.361-108.135,944.361-102.611z M944.361-352.588
		c0-11.045-8.955-20-20-20c0,0-6.75-0.625-15.438,4.563c0,0-132.563,71.605-89.563,120.377l116.387,116.037l0.176,0.174
		c0.896,0.854,2.102,1.385,3.438,1.385c2.762,0,5-2.238,5-5V-352.588z M654.361-102.635c0,11.047,8.953,20,20,20
		c0,0,6.75,0.625,15.438-4.563c0,0,132.563-71.604,89.563-120.377L662.975-323.609l-0.176-0.176
		c-0.896-0.852-2.104-1.383-3.438-1.383c-2.762,0-5,2.238-5,5V-102.635z"/>
	<linearGradient id="SVGID_7_" gradientUnits="userSpaceOnUse" x1="292.1426" y1="289.1426" x2="13.8588" y2="10.8588">
		<stop  offset="0" style="stop-color:#D06AFF"/>
		<stop  offset="0.5" style="stop-color:#3283AB"/>
		<stop  offset="1" style="stop-color:#88F0FF"/>
	</linearGradient>
	<path fill="url(#SVGID_7_)" stroke="#FFFFFF" stroke-width="2" stroke-miterlimit="10" d="M298,275c0,11.046-8.954,20-20,20
		c-5.523,0-10.523-2.238-14.143-5.857l-250-250C10.238,35.523,8,30.523,8,25C8,13.954,16.954,5,28,5
		c5.523,0,10.523,2.238,14.143,5.857l250,250C295.762,264.477,298,269.477,298,275z M298,25.023c0-11.046-8.954-20-20-20
		c0,0-6.75-0.625-15.438,4.563c0,0-132.563,71.604-89.563,120.377l116.387,116.036l0.176,0.175c0.896,0.853,2.103,1.384,3.438,1.384
		c2.762,0,5-2.238,5-5V25.023z M8,274.977c0,11.046,8.954,20,20,20c0,0,6.75,0.625,15.438-4.563c0,0,132.563-71.604,89.563-120.377
		L16.613,54.001l-0.176-0.175c-0.896-0.853-2.103-1.384-3.438-1.384c-2.762,0-5,2.238-5,5V274.977z"/>
	<linearGradient id="SVGID_8_" gradientUnits="userSpaceOnUse" x1="684.6719" y1="272.4082" x2="429.8448" y2="17.5811">
		<stop  offset="0" style="stop-color:#D06AFF"/>
		<stop  offset="0.5" style="stop-color:#3283AB"/>
		<stop  offset="1" style="stop-color:#88F0FF"/>
	</linearGradient>
	<path fill="url(#SVGID_8_)" stroke="#FFFFFF" stroke-width="2" stroke-miterlimit="10" d="M378.166,114.376h14.193v71.248h-16.543
		l-28.574-47.467v47.467h-14.193v-71.248h16.637l28.48,47.562V114.376z M398.941,114.376h42.955v14.287h-28.762v14.193h28.762
		v14.287h-28.762v14.193h28.762v14.287h-42.955V114.376z M519.728,150c0,19.646-15.98,35.624-35.625,35.624
		S448.479,169.646,448.479,150c0-19.645,15.979-35.624,35.623-35.624S519.728,130.355,519.728,150z M462.673,150
		c0,11.844,9.586,21.431,21.43,21.431c11.75,0,21.338-9.587,21.338-21.431c0-11.749-9.588-21.337-21.338-21.337
		C472.259,128.663,462.673,138.251,462.673,150z M567.573,135.808c0,4.323-1.316,8.365-3.477,11.749
		c4.887,3.947,7.988,9.963,7.988,16.73c0,11.749-9.588,21.337-21.336,21.337H526.31v-71.248h19.928
		C558.081,114.376,567.573,123.964,567.573,135.808z M546.237,142.856c3.947,0,7.143-3.195,7.143-7.049
		c0-3.948-3.195-7.145-7.143-7.145h-5.734v14.193H546.237z M550.749,171.337c3.947,0,7.143-3.102,7.143-7.05
		c0-3.947-3.195-7.144-7.143-7.144h-10.246v14.193H550.749z M605.831,185.624c-15.039,0-27.164-12.125-27.164-27.164v-44.084h14.193
		v44.084c0,7.144,5.828,12.971,12.971,12.971c7.145,0,12.973-5.827,12.973-12.971v-44.084h14.193v44.084
		C632.997,173.499,620.87,185.624,605.831,185.624z M639.579,114.376h19.926c11.844,0,21.338,9.588,21.338,21.432
		c0,8.083-4.512,15.227-11.186,18.799l14.004,31.018H668.06l-12.877-28.48h-1.41v28.48h-14.193V114.376z M659.505,142.856
		c3.949,0,7.145-3.195,7.145-7.049c0-3.948-3.195-7.145-7.145-7.145h-5.732v14.193H659.505z M687.423,135.808
		c0-11.844,9.588-21.432,21.338-21.432c8.271,0,15.885,2.82,21.9,7.52l-10.246,10.246c-3.289-2.162-7.332-3.479-11.654-3.479
		c-3.949,0-7.145,3.196-7.145,7.145c0,1.691,0.658,3.289,1.691,4.605c2.256,2.537,5.922,3.008,9.494,3.195
		c11.656,0.564,20.584,8.647,20.584,20.679c0,11.749-9.586,21.337-21.336,21.337c-9.588,0-18.234-3.76-24.627-9.869l10.059-10.058
		c3.854,3.571,8.93,5.733,14.568,5.733c3.854,0,7.049-3.195,7.049-7.144c0-2.161-0.846-4.323-2.818-5.451
		c-3.385-1.974-9.023-1.41-12.596-2.256C694.38,154.229,687.423,145.864,687.423,135.808z M771.456,128.663v56.961h-14.287v-56.961
		h-20.02v-14.287h54.328v14.287H771.456z"/>
</g>
</svg>
